<svg viewBox="0 0 1000 600" width="200" height="75" xmlns="http://www.w3.org/2000/svg" aria-label="Logo Group">
  <g style="font-style:normal;font-weight:400;font-size:32px;line-height:1;font-family:&quot;Brandmark Sans 52&quot;;font-variant-ligatures:none;text-align:center;text-anchor:middle"/>
  <g style="font-style:normal;font-weight:400;font-size:32px;line-height:1;font-family:&quot;Brandmark Sans 52&quot;;font-variant-ligatures:none;text-align:center;text-anchor:middle">
    <g transform="translate(0 70)"/>
    <path d="M315.652 367.56h-19.68v-1.68h19.68a.84.84 0 0 1 .816.816c0 .48-.384.864-.816.864m-29.76 21.84h10.08v-11.76h19.68c5.952 0 10.896-4.944 10.896-10.944 0-5.952-4.944-10.896-10.896-10.896h-29.76zm58.942 0h10.32c9.312 0 16.8-7.488 16.8-16.848 0-9.264-7.489-16.752-16.8-16.752h-10.32c-9.312 0-16.8 7.488-16.8 16.752 0 9.36 7.488 16.848 16.8 16.848m10.32-10.08h-10.32a6.675 6.675 0 0 1-6.72-6.72 6.675 6.675 0 0 1 6.72-6.72h10.32a6.675 6.675 0 0 1 6.72 6.72 6.675 6.675 0 0 1-6.72 6.72m35.243 10.08h10.32c9.312 0 16.8-7.488 16.8-16.848 0-9.264-7.49-16.752-16.8-16.752h-10.32c-9.312 0-16.8 7.488-16.8 16.752 0 9.36 7.488 16.848 16.8 16.848m10.32-10.08h-10.32a6.675 6.675 0 0 1-6.72-6.72 6.675 6.675 0 0 1 6.72-6.72h10.32a6.675 6.675 0 0 1 6.72 6.72 6.675 6.675 0 0 1-6.72 6.72m18.394 10.08h40.56v-10.08h-30.48V355.8h-10.08zm82.523-11.76H481.57c-5.952 0-10.896-4.944-10.896-10.944 0-5.952 4.944-10.896 10.896-10.896h28.56v10.08h-28.56a.84.84 0 0 0-.816.816c0 .48.384.864.816.864h20.064c5.952 0 10.896 4.944 10.896 10.944 0 5.952-4.944 10.896-10.896 10.896h-28.8v-10.08h28.8a.84.84 0 0 0 .816-.816c0-.48-.384-.864-.816-.864m12.352 11.76h40.56v-10.08h-30.48v-1.68h30.48v-10.08h-30.48v-1.68h30.48V355.8h-40.56zm71.854-21.84h-19.68v-1.68h19.68a.84.84 0 0 1 .816.816c0 .48-.384.864-.816.864m-29.76 21.84h10.08v-11.76h13.248l6.768 11.76h10.56l-7.152-12.432c4.128-1.536 7.152-5.616 7.152-10.272 0-5.952-4.944-10.896-10.896-10.896h-29.76zm37.188-33.6 25.774 34.08 6.48-8.544-19.296-25.536zm38.59 0-11.856 15.696 6.48 8.592L644.82 355.8zm13.097 0v33.6h10.08v-33.6zm51.18 23.52h-22.8a6.675 6.675 0 0 1-6.72-6.72 6.675 6.675 0 0 1 6.72-6.72h22.8V355.8h-22.8c-9.312 0-16.8 7.488-16.8 16.752 0 9.36 7.486 16.848 16.8 16.848h22.8zm1.414 10.08h40.56v-10.08h-30.48v-1.68h30.48v-10.08h-30.48v-1.68h30.48V355.8h-40.56z" fill="#aa1ba9"/>
  </g>
  <g style="font-style:normal;font-weight:400;font-size:72px;line-height:1;font-family:&quot;Brandmark Sans 52&quot;;font-variant-ligatures:normal;text-align:center;text-anchor:middle" stroke-width="0" stroke-miterlimit="2">
    <path d="M233.814 315h91.26v-22.68h-68.58V239.4h-22.68z" fill="#5825b8"/>
    <path d="M230.631 292.32h-51.3c-8.424 0-15.12-6.696-15.12-15.12s6.696-15.12 15.12-15.12h51.3V239.4h-51.3c-20.952 0-37.8 16.848-37.8 37.692 0 21.06 16.848 37.908 37.8 37.908h51.3z" fill="#431fc4"/>
    <path d="M328.314 315h91.26v-22.68h-68.58v-3.78h68.58v-22.68h-68.58v-3.78h68.58V239.4h-91.26z" fill="#6c2aab"/>
    <path d="M420 315h29.16l43.417-57.456-14.58-19.224zm86.833 0h29.16l-41.256-54.648-14.58 19.332z" fill="#81309f"/>
    <path d="M603.258 265.86h-44.28v-3.78h44.28c.972 0 1.836.864 1.836 1.836 0 1.08-.864 1.944-1.836 1.944M536.298 315h22.68v-26.46h29.808L604.014 315h23.76l-16.092-27.972c9.288-3.456 16.092-12.636 16.092-23.112 0-13.392-11.124-24.516-24.516-24.516h-66.96z" fill="#953693"/>
    <path d="M746.601 281.952V315l64.368-75.6h-28.08zm4.32 33.048h18.36v-21.6zm-6.912-35.1 13.176-15.552-24.192-24.948h-28.08z" fill="#aa3c87"/>
    <path d="M859.789 239.4v13.176h-7.02v22.68h7.02v3.78h-7.02v22.68h7.02V315h22.68v-13.284h3.78V315h22.68v-13.284h7.02v-22.68h-7.02v-3.78h7.02v-22.68h-7.02V239.4h-22.68v13.176h-3.78V239.4Zm22.68 39.636v-3.78h3.78v3.78z" fill="#be417a"/>
    <path d="M934.789 315h22.68v-75.6h-35.424v22.68h12.744z" fill="#d3476e"/>
    <path d="M643.76 315h91.26v-22.68h-68.58V239.4h-22.68z" fill="#A0398D"/>
  </g>
</svg>
